<svg width="17" height="17" viewBox="0 0 17 17" fill="none" xmlns="http://www.w3.org/2000/svg">
<path d="M14.8369 9.03734V6.74006C14.8369 3.0057 11.9781 0 8.48571 0C4.99327 0 2.16312 3.0057 2.16312 6.71475V9.01204C0.962444 9.15372 0 10.2315 0 11.5623V14.3656C0 15.6408 0.852859 16.8046 2.05353 16.9716C2.55858 17.0576 3.0398 16.9412 3.46861 16.7186C3.70684 16.5769 3.86883 16.3239 3.86883 16.0405V9.97346C3.86883 9.69009 3.73543 9.43709 3.4972 9.29541V6.85644C3.4972 3.96712 5.60314 1.52815 8.29989 1.41683C11.1539 1.30551 13.5028 3.73941 13.5028 6.71475V9.29541C13.4218 9.32577 13.3694 9.38143 13.317 9.40673C13.1026 9.54841 12.9978 9.77612 12.9978 10.0291V15.9241C12.9978 16.2075 13.1312 16.4352 13.3456 16.5769C13.7172 16.8046 14.146 16.9463 14.5987 16.9463C15.9327 16.9463 17 15.7825 17 14.396V11.5623C16.9714 10.2568 16.0376 9.15372 14.8369 9.03734Z" fill="#2469B0"/>
</svg>
