<svg width="6" height="11" viewBox="0 0 6 11" fill="none" xmlns="http://www.w3.org/2000/svg">
<path d="M0.00493253 5.4206C0.0228547 5.29853 0.079537 5.18532 0.166765 5.09667L4.946 0.208227C5.05211 0.0847935 5.20548 0.00975597 5.36966 0.000886945C5.53399 -0.00798208 5.69472 0.0499809 5.81402 0.161298C5.93332 0.272475 6.00057 0.427124 6 0.588617C5.99943 0.75025 5.93108 0.904376 5.81096 1.01485L1.42359 5.5L5.81096 9.98515C5.93112 10.0956 5.99946 10.2498 6 10.4114C6.00057 10.5729 5.93332 10.7276 5.81402 10.8387C5.69472 10.95 5.53398 11.008 5.36966 10.9991C5.20548 10.9902 5.05211 10.9152 4.946 10.7918L0.166765 5.90333C0.0410613 5.77484 -0.018537 5.59725 0.00507477 5.42063L0.00493253 5.4206Z" fill="#DB2349"/>
</svg>
